<?xml version="1.0" encoding="UTF-8" standalone="no"?>
<!DOCTYPE svg PUBLIC "-//W3C//DTD SVG 1.1//EN"
 "http://www.w3.org/Graphics/SVG/1.1/DTD/svg11.dtd">
<!-- Generated by graphviz version 2.43.0 (0)
 -->
<!-- Title: %3 Pages: 1 -->
<svg width="292pt" height="332pt"
 viewBox="0.00 0.00 292.00 332.00" xmlns="http://www.w3.org/2000/svg" xmlns:xlink="http://www.w3.org/1999/xlink">
<g id="graph0" class="graph" transform="scale(1 1) rotate(0) translate(4 328)">
<title>%3</title>
<polygon fill="white" stroke="transparent" points="-4,4 -4,-328 288,-328 288,4 -4,4"/>
<!-- &#45;695686123132982484 -->
<g id="node1" class="node">
<title>&#45;695686123132982484</title>
<polygon fill="none" stroke="black" points="248,-324 36,-324 36,-288 248,-288 248,-324"/>
<text text-anchor="middle" x="142" y="-301" font-family="Helvetica,sans-Serif" font-size="20.00">Sub(CumSum, 100)</text>
</g>
<!-- &#45;2528957617318953401 -->
<g id="node2" class="node">
<title>&#45;2528957617318953401</title>
<polygon fill="none" stroke="black" points="252.5,-252 31.5,-252 31.5,-216 252.5,-216 252.5,-252"/>
<text text-anchor="middle" x="142" y="-229" font-family="Helvetica,sans-Serif" font-size="20.00">CumSum(Projection)</text>
</g>
<!-- &#45;2528957617318953401&#45;&gt;&#45;695686123132982484 -->
<g id="edge1" class="edge">
<title>&#45;2528957617318953401&#45;&gt;&#45;695686123132982484</title>
<path fill="none" stroke="black" d="M142,-252.3C142,-260.02 142,-269.29 142,-277.89"/>
<polygon fill="black" stroke="black" points="138.5,-277.9 142,-287.9 145.5,-277.9 138.5,-277.9"/>
</g>
<!-- 7512928320587568705 -->
<g id="node3" class="node">
<title>7512928320587568705</title>
<polygon fill="none" stroke="black" points="264.5,-180 19.5,-180 19.5,-144 264.5,-144 264.5,-180"/>
<text text-anchor="middle" x="142" y="-157" font-family="Helvetica,sans-Serif" font-size="20.00">Projection(Partitions, a)</text>
</g>
<!-- 7512928320587568705&#45;&gt;&#45;2528957617318953401 -->
<g id="edge2" class="edge">
<title>7512928320587568705&#45;&gt;&#45;2528957617318953401</title>
<path fill="none" stroke="black" d="M142,-180.3C142,-188.02 142,-197.29 142,-205.89"/>
<polygon fill="black" stroke="black" points="138.5,-205.9 142,-215.9 145.5,-205.9 138.5,-205.9"/>
</g>
<!-- &#45;3242492694462186783 -->
<g id="node4" class="node">
<title>&#45;3242492694462186783</title>
<polygon fill="none" stroke="black" points="284,-108 0,-108 0,-72 284,-72 284,-108"/>
<text text-anchor="middle" x="142" y="-85" font-family="Helvetica,sans-Serif" font-size="20.00">Partitions(FromPandas, [2])</text>
</g>
<!-- &#45;3242492694462186783&#45;&gt;7512928320587568705 -->
<g id="edge3" class="edge">
<title>&#45;3242492694462186783&#45;&gt;7512928320587568705</title>
<path fill="none" stroke="black" d="M142,-108.3C142,-116.02 142,-125.29 142,-133.89"/>
<polygon fill="black" stroke="black" points="138.5,-133.9 142,-143.9 145.5,-133.9 138.5,-133.9"/>
</g>
<!-- &#45;996367368606120509 -->
<g id="node5" class="node">
<title>&#45;996367368606120509</title>
<polygon fill="none" stroke="black" points="210.5,-36 73.5,-36 73.5,0 210.5,0 210.5,-36"/>
<text text-anchor="middle" x="142" y="-13" font-family="Helvetica,sans-Serif" font-size="20.00">FromPandas</text>
</g>
<!-- &#45;996367368606120509&#45;&gt;&#45;3242492694462186783 -->
<g id="edge4" class="edge">
<title>&#45;996367368606120509&#45;&gt;&#45;3242492694462186783</title>
<path fill="none" stroke="black" d="M142,-36.3C142,-44.02 142,-53.29 142,-61.89"/>
<polygon fill="black" stroke="black" points="138.5,-61.9 142,-71.9 145.5,-61.9 138.5,-61.9"/>
</g>
</g>
</svg>
