<?xml version="1.0" encoding="UTF-8" standalone="no"?>
<!DOCTYPE svg PUBLIC "-//W3C//DTD SVG 1.1//EN"
 "http://www.w3.org/Graphics/SVG/1.1/DTD/svg11.dtd">
<!-- Generated by graphviz version 2.43.0 (0)
 -->
<!-- Title: %3 Pages: 1 -->
<svg width="221pt" height="188pt"
 viewBox="0.00 0.00 220.50 188.00" xmlns="http://www.w3.org/2000/svg" xmlns:xlink="http://www.w3.org/1999/xlink">
<g id="graph0" class="graph" transform="scale(1 1) rotate(0) translate(4 184)">
<title>%3</title>
<polygon fill="white" stroke="transparent" points="-4,4 -4,-184 216.5,-184 216.5,4 -4,4"/>
<!-- 2180861562297755156 -->
<g id="node1" class="node">
<title>2180861562297755156</title>
<g id="a_node1"><a xlink:title="A Materialized Layer with 3 Tasks.&#10;">
<polygon fill="none" stroke="black" points="143.5,-180 61.5,-180 61.5,-144 143.5,-144 143.5,-180"/>
<text text-anchor="middle" x="102.5" y="-157" font-family="Helvetica,sans-Serif" font-size="20.00">zip&#45;#0</text>
</a>
</g>
</g>
<!-- 5370100608330392778 -->
<g id="node2" class="node">
<title>5370100608330392778</title>
<g id="a_node2"><a xlink:title="A Materialized Layer with 3 Tasks.&#10;">
<polygon fill="none" stroke="black" points="205,-36 0,-36 0,0 205,0 205,-36"/>
<text text-anchor="middle" x="102.5" y="-13" font-family="Helvetica,sans-Serif" font-size="20.00">from_sequence&#45;#1</text>
</a>
</g>
</g>
<!-- 5370100608330392778&#45;&gt;2180861562297755156 -->
<g id="edge2" class="edge">
<title>5370100608330392778&#45;&gt;2180861562297755156</title>
<path fill="none" stroke="black" d="M91.03,-36.33C85.13,-46.31 78.54,-59.35 75.5,-72 71.77,-87.56 71.77,-92.44 75.5,-108 77.71,-117.19 81.79,-126.59 86.12,-134.87"/>
<polygon fill="black" stroke="black" points="83.1,-136.64 91.03,-143.67 89.22,-133.23 83.1,-136.64"/>
</g>
<!-- 2488728930507624888 -->
<g id="node3" class="node">
<title>2488728930507624888</title>
<g id="a_node3"><a xlink:title="A Materialized Layer with 3 Tasks.&#10;">
<polygon fill="none" stroke="black" points="212.5,-108 84.5,-108 84.5,-72 212.5,-72 212.5,-108"/>
<text text-anchor="middle" x="148.5" y="-85" font-family="Helvetica,sans-Serif" font-size="20.00">lambda&#45;#2</text>
</a>
</g>
</g>
<!-- 5370100608330392778&#45;&gt;2488728930507624888 -->
<g id="edge3" class="edge">
<title>5370100608330392778&#45;&gt;2488728930507624888</title>
<path fill="none" stroke="black" d="M113.87,-36.3C119.22,-44.44 125.7,-54.31 131.61,-63.3"/>
<polygon fill="black" stroke="black" points="128.84,-65.46 137.26,-71.9 134.69,-61.62 128.84,-65.46"/>
</g>
<!-- 2488728930507624888&#45;&gt;2180861562297755156 -->
<g id="edge1" class="edge">
<title>2488728930507624888&#45;&gt;2180861562297755156</title>
<path fill="none" stroke="black" d="M137.13,-108.3C131.78,-116.44 125.3,-126.31 119.39,-135.3"/>
<polygon fill="black" stroke="black" points="116.31,-133.62 113.74,-143.9 122.16,-137.46 116.31,-133.62"/>
</g>
</g>
</svg>
